Coordinates
version=1
nRows=6
nColumns=107
inDegrees=yes

Units are S.I. units (second, meters, Newtons, ...)
If the header above contains a line with 'inDegrees', this indicates whether rotational values are in degrees (yes) or radians (no).

endheader
time	sternoclavicular_r2	sternoclavicular_r3	unrotscap_r3	unrotscap_r2	acromioclavicular_r2	acromioclavicular_r3	acromioclavicular_r1	unrothum_r1	unrothum_r3	unrothum_r2	elv_angle	shoulder_elv	shoulder1_r2	shoulder_rot	elbow_flexion	pro_sup	deviation	flexion	proximal_distal_r1	proximal_distal_r3	cmc_flexion	cmc_abduction	mp_flexion	ip_flexion	mcp2_flexion	mcp2_abduction	pm2_flexion	md2_flexion	mcp3_flexion	mcp3_abduction	pm3_flexion	md3_flexion	mcp4_flexion	mcp4_abduction	pm4_flexion	md4_flexion	mcp5_flexion	mcp5_abduction	pm5_flexion	md5_flexion	bicpt_tx	bicpt_ty	bicpt_tz	bicpt2_tx	bicpt2_ty	bicpt2_tz	ptpt_tx	ptpt_ty	ptpt_tz	FCUpt_tx	FCUpt_ty	FCUpt_tz	EDCpt_tx	EDCpt_ty	EDCpt_tz	APLpt_tx	APLpt_ty	APLpt_tz	FPLpt_tx	FPLpt_ty	FPLpt_tz	FPLpt2_tx	FPLpt2_ty	FPLpt2_tz	PEC1pt2_tx	PEC1pt2_ty	PEC1pt2_tz	PEC1pt3_tx	PEC1pt3_ty	PEC1pt3_tz	PEC2pt2_tx	PEC2pt2_ty	PEC2pt2_tz	PEC2pt3_tx	PEC2pt3_ty	PEC2pt3_tz	PEC3pt2_tx	PEC3pt2_ty	PEC3pt2_tz	PEC3pt3_tx	PEC3pt3_ty	PEC3pt3_tz	DELT2pt2a_tx	DELT2pt2a_ty	DELT2pt2a_tz	DELT2pt2_tx	DELT2pt2_ty	DELT2pt2_tz	LAT1pt2_tx	LAT1pt2_ty	LAT1pt2_tz	LAT1pt3_tx	LAT1pt3_ty	LAT1pt3_tz	LAT2pt2_tx	LAT2pt2_ty	LAT2pt2_tz	LAT2pt3_tx	LAT2pt3_ty	LAT2pt3_tz	LAT3pt2_tx	LAT3pt2_ty	LAT3pt2_tz	LAT3pt3_tx	LAT3pt3_ty	LAT3pt3_tz
      0.00000000	     -0.32532799	      0.13779358	     -0.13779358	      0.32532799	     -0.06587230	      0.53235675	      0.23929070	     -0.23929070	     -0.53235675	      0.06587230	     99.42227703	     77.02429232	     -1.73524608	    -22.56926583	     28.55330272	     48.55412725	      0.19868637	      0.27463834	      0.23733442	      0.13731917	     37.33856321	    -18.66494120	     16.53442676	     10.63299134	    -19.22376726	     10.84198037	     12.00880814	    -28.69130182	    -30.22992034	      5.07421747	      8.16709071	     11.52011781	    -23.33788522	     -7.64724640	     -7.50924644	     19.66801012	    -36.45809496	    -13.84970988	     -1.58277460	      5.09098095	      0.00084445	     -0.03087264	     -0.00482714	      0.01650669	     -0.01795664	     -0.00650557	      0.00396240	     -0.06721980	     -0.00396130	      0.00865275	     -0.18330673	     -0.00041959	     -0.00582648	      0.00173951	      0.00006518	     -0.00034416	     -0.00013766	     -0.00068832	     -0.00044052	     -0.00132157	     -0.00074338	     -0.00001258	     -0.00015893	     -0.00019071	      0.00252469	      0.00885780	      0.00616195	     -0.00825872	      0.01994075	     -0.01891376	      0.00252469	      0.00885780	      0.00616195	      0.00055629	      0.01848585	     -0.00971363	      0.00398026	      0.00492571	      0.01604610	      0.00000000	      0.00793549	      0.00000000	     -0.00723173	     -0.03342001	     -0.00654404	      0.01521472	     -0.00051213	     -0.00424118	     -0.00089862	      0.01506254	     -0.00616195	      0.00248190	      0.02173799	     -0.01797235	     -0.00603357	      0.01305135	     -0.00552008	     -0.01258065	      0.02755760	     -0.03085253	     -0.02362080	      0.01459184	     -0.00740290	     -0.01566162	      0.03183673	     -0.03855497
      0.03333333	     -0.32538229	      0.13781658	     -0.13781658	      0.32538229	     -0.06588330	      0.53244562	      0.23933064	     -0.23933064	     -0.53244562	      0.06588330	     99.44555435	     77.03715021	     -1.73565235	    -22.65873796	     28.57313399	     48.57071936	      0.19931648	      0.27767326	      0.23798377	      0.13883663	     37.42045255	    -18.28017616	     16.50179458	     10.62765161	    -19.41739766	     10.99574199	     11.96978124	    -28.71411593	    -28.96685702	      5.10704039	      8.41607593	     11.53292282	    -23.43567952	     -7.79789788	     -7.52732591	     19.63997828	    -36.69768610	    -13.93391963	     -1.67415652	      5.05939230	      0.00084511	     -0.03087492	     -0.00482750	      0.01650639	     -0.01796203	     -0.00650360	      0.00396117	     -0.06722060	     -0.00396263	      0.00865446	     -0.18330634	     -0.00041960	     -0.00582847	      0.00174023	      0.00006499	     -0.00034867	     -0.00013947	     -0.00069734	     -0.00044629	     -0.00133888	     -0.00075312	     -0.00001255	     -0.00015757	     -0.00018909	      0.00252511	      0.00885928	      0.00616298	     -0.00826010	      0.01994408	     -0.01891692	      0.00252511	      0.00885928	      0.00616298	      0.00055638	      0.01848893	     -0.00971525	      0.00398074	      0.00492653	      0.01604727	      0.00000000	      0.00793816	      0.00000000	     -0.00723294	     -0.03342559	     -0.00654625	      0.01526321	     -0.00051497	     -0.00427584	     -0.00089877	      0.01506506	     -0.00616298	      0.00248231	      0.02174161	     -0.01797535	     -0.00603458	      0.01305353	     -0.00552100	     -0.01258275	      0.02756220	     -0.03085768	     -0.02362475	      0.01459427	     -0.00740413	     -0.01566423	      0.03184205	     -0.03856141
      0.06666667	     -0.32599058	      0.13807422	     -0.13807422	      0.32599058	     -0.06600646	      0.53344099	      0.23977806	     -0.23977806	     -0.53344099	      0.06600646	     99.20273851	     77.18116636	     -1.73141441	    -21.54187707	     28.67367053	     47.46591568	      0.22141341	      0.27942661	      0.26036285	      0.13971330	     37.34075759	    -17.46208758	     16.14269487	      9.91277352	    -17.76886279	     11.49553603	     12.22857315	    -29.92897643	    -25.68544664	      5.43131604	      6.50658122	     10.68941742	    -22.07622640	     -7.57744970	     -7.49807782	     20.32590093	    -36.00302928	    -13.97358551	     -0.94369374	      5.04502853	      0.00084844	     -0.03088644	     -0.00482936	      0.01652460	     -0.01798934	     -0.00663396	      0.00404280	     -0.06716781	     -0.00387363	      0.00854050	     -0.18333184	     -0.00041843	     -0.00569590	      0.00169255	      0.00007772	     -0.00035127	     -0.00014051	     -0.00070255	     -0.00044963	     -0.00134890	     -0.00075875	     -0.00001258	     -0.00015890	     -0.00019068	      0.00252983	      0.00887584	      0.00617450	     -0.00827554	      0.01998136	     -0.01895228	      0.00252983	      0.00887584	      0.00617450	      0.00055742	      0.01852350	     -0.00973341	      0.00398614	      0.00493574	      0.01606027	      0.00000000	      0.00796809	      0.00000000	     -0.00724646	     -0.03348808	     -0.00657109	      0.01465010	     -0.00047976	     -0.00385199	     -0.00090045	      0.01509322	     -0.00617450	      0.00248695	      0.02178226	     -0.01800895	     -0.00604586	      0.01307793	     -0.00553132	     -0.01260627	      0.02761373	     -0.03091537	     -0.02366891	      0.01462156	     -0.00741797	     -0.01569352	      0.03190158	     -0.03863349
      0.10000000	     -0.32595427	      0.13805884	     -0.13805884	      0.32595427	     -0.06599911	      0.53338159	      0.23975135	     -0.23975135	     -0.53338159	      0.06599911	     99.17129479	     77.17257089	     -1.73086562	    -21.51275480	     28.75798073	     47.33181054	      0.22701737	      0.28083151	      0.26591123	      0.14041576	     37.28325755	    -16.93141424	     15.62239390	      9.93168758	    -16.79103046	     11.63854301	     11.87098494	    -31.87388131	    -24.50234587	      5.62412202	      6.32902468	     10.05310832	    -21.30254661	     -7.48799297	     -8.34380446	     19.96065246	    -35.62824955	    -13.98971644	     -1.56899973	      5.05661880	      0.00085122	     -0.03089610	     -0.00483092	      0.01652662	     -0.01801225	     -0.00664966	      0.00405271	     -0.06716140	     -0.00386283	      0.00852669	     -0.18333491	     -0.00041823	     -0.00567980	      0.00168679	      0.00007922	     -0.00035338	     -0.00014135	     -0.00070675	     -0.00045232	     -0.00135696	     -0.00076329	     -0.00001260	     -0.00015984	     -0.00019180	      0.00252955	      0.00887485	      0.00617381	     -0.00827462	      0.01997914	     -0.01895017	      0.00252955	      0.00887485	      0.00617381	      0.00055736	      0.01852143	     -0.00973233	      0.00398582	      0.00493519	      0.01605950	      0.00000000	      0.00796630	      0.00000000	     -0.00724565	     -0.03348435	     -0.00656961	      0.01463389	     -0.00047885	     -0.00384119	     -0.00090035	      0.01509154	     -0.00617381	      0.00248667	      0.02177983	     -0.01800695	     -0.00604519	      0.01307647	     -0.00553071	     -0.01260486	      0.02761065	     -0.03091193	     -0.02366628	      0.01461993	     -0.00741715	     -0.01569177	      0.03189802	     -0.03862919
      0.13333333	     -0.32563398	      0.13792319	     -0.13792319	      0.32563398	     -0.06593426	      0.53285748	      0.23951577	     -0.23951577	     -0.53285748	      0.06593426	     99.22420429	     77.09673968	     -1.73178906	    -21.86736301	     28.80803458	     47.64541313	      0.22647788	      0.27704030	      0.26537972	      0.13852015	     37.43108499	    -16.72575952	     15.01928106	     10.08179630	    -16.32054776	     11.65491439	     11.91636028	    -33.56272456	    -23.95614512	      5.66825053	      6.46065699	      9.88079274	    -20.94738751	     -7.56899302	     -8.49761221	     19.44535216	    -35.20641653	    -14.01292694	     -2.29114780	      5.07540444	      0.00085288	     -0.03090184	     -0.00483184	      0.01652183	     -0.01802584	     -0.00661289	      0.00402954	     -0.06717639	     -0.00388809	      0.00855899	     -0.18332772	     -0.00041868	     -0.00571744	      0.00170027	      0.00007569	     -0.00034773	     -0.00013909	     -0.00069545	     -0.00044509	     -0.00133526	     -0.00075109	     -0.00001255	     -0.00015740	     -0.00018888	      0.00252706	      0.00886613	      0.00616774	     -0.00826649	      0.01995951	     -0.01893155	      0.00252706	      0.00886613	      0.00616774	      0.00055681	      0.01850323	     -0.00972276	      0.00398298	      0.00493034	      0.01605265	      0.00000000	      0.00795054	      0.00000000	     -0.00723853	     -0.03345145	     -0.00655652	      0.01483050	     -0.00048997	     -0.00397357	     -0.00089946	      0.01507671	     -0.00616774	      0.00248423	      0.02175843	     -0.01798925	     -0.00603925	      0.01306363	     -0.00552527	     -0.01259248	      0.02758352	     -0.03088155	     -0.02364302	      0.01460556	     -0.00740986	     -0.01567635	      0.03186668	     -0.03859123
      0.16666667	     -0.32451082	      0.13744747	     -0.13744747	      0.32451082	     -0.06570684	      0.53101956	      0.23868964	     -0.23868964	     -0.53101956	      0.06570684	     99.45209452	     76.83082034	     -1.73576650	    -23.05254995	     28.77272693	     48.07128592	      0.21272494	      0.23989012	      0.25165887	      0.11994506	     37.01399457	    -16.40724373	     15.18097763	      9.56483701	    -15.44286522	     11.74329177	     12.02760544	    -34.50125308	    -22.97104310	      5.75398991	      5.99897844	     10.01291272	    -20.80732842	     -7.57500048	     -8.09316086	     20.08729433	    -35.54742949	    -14.02718031	     -1.40289063	      5.05221507	      0.00085171	     -0.03089779	     -0.00483119	      0.01651497	     -0.01801625	     -0.00656274	      0.00399807	     -0.06719673	     -0.00392240	      0.00860290	     -0.18331791	     -0.00041919	     -0.00576854	      0.00171863	      0.00007082	     -0.00029363	     -0.00011745	     -0.00058727	     -0.00037585	     -0.00112755	     -0.00063425	     -0.00001269	     -0.00016422	     -0.00019706	      0.00251835	      0.00883555	      0.00614647	     -0.00823798	      0.01989066	     -0.01886625	      0.00251835	      0.00883555	      0.00614647	      0.00055489	      0.01843941	     -0.00968923	      0.00397299	      0.00491334	      0.01602855	      0.00000000	      0.00789539	      0.00000000	     -0.00721357	     -0.03333607	     -0.00651075	      0.01547545	     -0.00052749	     -0.00442970	     -0.00089636	      0.01502471	     -0.00614647	      0.00247566	      0.02168338	     -0.01792721	     -0.00601842	      0.01301857	     -0.00550621	     -0.01254904	      0.02748838	     -0.03077504	     -0.02356147	      0.01455518	     -0.00738430	     -0.01562228	      0.03175677	     -0.03845813
